# xmcd CD database file
#
# Track frame offsets:
#	150
#	17666
#	35098
#	58573
#	80130
#	101217
#	128424
#	151402
#	172787
#	218540
#	237297
#	275004
#	291765
#	303598
#
# Disc length: 4645 seconds
#
# Revision: 0
# Processed by: cddbd v1.5.1PL2 Copyright (c) Steve Scherf et al.
# Submitted via: CDex 1.51
#
DISCID=be12230e
DTITLE=Jimi Hendrix Experience - Live At The Isle Of Fehmarn
DYEAR=1970
DGENRE=Blues
TTITLE0=Introduction
TTITLE1=Killing Floor
TTITLE2=Spanish Castle Magic
TTITLE3=All Along The Watchtower
TTITLE4=Hey Joe
TTITLE5=Hey Baby (New Rising Sun)
TTITLE6=Message To Love
TTITLE7=Foxey Lady
TTITLE8=Red House
TTITLE9=Ezy Ryder
TTITLE10=Freedom
TTITLE11=Room Full Of Mirrors
TTITLE12=Purple Haze
TTITLE13=Voodoo Child (Slight Return)
EXTD=YEAR: 1970
EXTT0=
EXTT1=
EXTT2=
EXTT3=
EXTT4=
EXTT5=
EXTT6=
EXTT7=
EXTT8=
EXTT9=
EXTT10=
EXTT11=
EXTT12=
EXTT13=
PLAYORDER=
